# xmcd
#
# Track frame offsets:
#	182
#	13520
#	23820
#	36852
#	45177
#	57647
#	69137
#	84342
#	96820
#	109752
#	120762
#	131835
#	143567
#	157050
#	171175
#	181787
#	194227
#	209362
#	222445
#	232232
#
# Disc length: 3230 seconds
#
# Revision: 4
# Processed by: cddbd v1.5.1PL0 Copyright (c) Steve Scherf et al.
# Submitted via: audiograbber 1.83.01
#
DISCID=160c9c14
DTITLE=Various Artist - The Country Box [Disc Three]
DYEAR=1995
DGENRE=Country
TTITLE0=Charlie Rich - The Most Beautiful Girl
TTITLE1=Patsy Cline - Too Many Secrets
TTITLE2=Crystal Gayle - Talking In Your Sleep
TTITLE3=Waylon Jennings - Jole Blon
TTITLE4=Wanda Jackson - Crazy
TTITLE5=Charley Pride - Louisiana Man
TTITLE6=Crystal Gayle - Ready For The Times To Get Better
TTITLE7=Kenny Rogers - Reuben James
TTITLE8=Johnny Cash - Ring Of Fire
TTITLE9=Carl Perkins - Memphis Tennessee
TTITLE10=Skeeter Davis - My Last Date With You
TTITLE11=Patsy Cline - Let The Teardrops Fall
TTITLE12=Jimmy Dean - Big Bad John
TTITLE13=Jo Anne Houston - Loving Him Was Easier
TTITLE14=Waylon Jennings - Sally Was A Good Old Girl
TTITLE15=Charlie Rich - Behind Closed Doors
TTITLE16=Kenny Rogers - For The Good Times
TTITLE17=Dottie West - D I V O R C E
TTITLE18=Willie Nelson - Broken Promises
TTITLE19=Ferlin Husky - Six Days On The Raod
EXTD=
EXTT0=
EXTT1=
EXTT2=
EXTT3=
EXTT4=
EXTT5=
EXTT6=
EXTT7=
EXTT8=
EXTT9=
EXTT10=
EXTT11=
EXTT12=
EXTT13=
EXTT14=
EXTT15=
EXTT16=
EXTT17=
EXTT18=
EXTT19=
PLAYORDER=
